<?xml version="1.0" encoding="UTF-8"?>
<svg id="Layer_1" data-name="Layer 1" xmlns="http://www.w3.org/2000/svg" viewBox="0 0 2519.27 772.99">
  <g id="shopping_bag" data-name="shopping bag">
    <path id="Path_141" data-name="Path 141" d="M0,212.65v482.02c.06,23.46,19.05,42.46,42.51,42.54h526.94c23.45-.08,42.44-19.09,42.5-42.54V212.65H0Z" style="fill: #237cd4; stroke-width: 0px;"/>
    <path id="Path_142" data-name="Path 142" d="M579.89,195.91l-32.17-17.11,32.17-33.72.17-.17H31.76l.19.17,32.14,33.72-32.14,17.11L.26,212.62h611.26l-31.63-16.71Z" style="fill: #043a6e; stroke-width: 0px;"/>
    <path id="Path_143" data-name="Path 143" d="M579.89,145.08l-32.17,33.72,32.17,17.11.17.05v-51.06l-.17.19Z" style="fill: #449fea; stroke-width: 0px;"/>
    <path id="Path_144" data-name="Path 144" d="M31.96,195.91l32.14-17.11-32.14-33.72v50.83Z" style="fill: #449fea; stroke-width: 0px;"/>
    <path id="Path_145" data-name="Path 145" d="M174.25,363.31c-.03,19.56-15.9,35.4-35.47,35.37-19.56-.03-35.4-15.9-35.37-35.47.03-19.53,15.86-35.36,35.39-35.37,19.58,0,35.45,15.88,35.45,35.47h0Z" style="fill: #043a6e; stroke-width: 0px;"/>
    <path id="Path_146" data-name="Path 146" d="M513.88,363.31c-.02,19.57-15.9,35.41-35.47,35.39-19.57-.02-35.41-15.9-35.39-35.47.02-19.57,15.9-35.41,35.47-35.39h.02c19.55.01,35.38,15.86,35.37,35.41v.06Z" style="fill: #043a6e; stroke-width: 0px;"/>
    <path id="Path_147" data-name="Path 147" d="M309.53,0C204.48-.02,119.31,85.13,119.3,190.18v.03c0,1.53,0,79.33.07,162.82v.32s-.07.11-.07.19.07.17.07.21c.29,11.73,10.04,21.01,21.78,20.71,11.4-.29,20.55-9.52,20.72-20.93,0-.14-.07-.26-.07-.5h.07v-162.82c0-81.56,66.12-147.67,147.67-147.67s147.67,66.12,147.67,147.67c0,1.75-.06,72.37-.06,142.98v18.43c-.05.49-.15.93-.19,1.43v.5c0,.66.15,1.27.19,1.86.98,11.66,11.22,20.32,22.88,19.35,11.01-.92,19.47-10.15,19.42-21.2v-.5h.21v-19.84c0-70.56.07-141.22.07-142.98C499.75,85.18,414.61.02,309.56,0h-.03Z" style="fill: #84c102; stroke-width: 0px;"/>
  </g>
  <g id="g5012" style="opacity: .28;">
    <g id="g4211">
      <path id="path4161" d="M309.52,404.16c-44.48,0-82.14,30.64-93.15,71.8h49.61c8.56-15.21,24.63-25.48,43.55-25.48,27.99,0,50.18,22.19,50.18,50.18s-22.19,50.18-50.18,50.18c-20.19,0-37.23-11.62-45.23-28.56h-48.7c9.92,42.7,48.36,74.88,93.94,74.88,53.02,0,96.5-43.48,96.5-96.5s-43.48-96.5-96.5-96.5Z" style="fill: #0d47a1; stroke-width: 0px;"/>
      <circle id="path4209" cx="309.52" cy="500.66" r="147.45" style="fill: none; stroke: #0d47a1; stroke-linecap: round; stroke-width: 27px;"/>
    </g>
  </g>
  <g style="fill: #efefef;">
    <path d="M973.16,184.51c-1.8,3.6-3.89,6.14-6.26,7.61-2.37,1.47-5.2,2.21-8.47,2.21s-6.96-1.27-11.05-3.81c-4.09-2.54-8.92-5.36-14.48-8.47-5.57-3.11-12.07-5.93-19.52-8.47-7.45-2.54-16.24-3.81-26.39-3.81-9.17,0-17.15,1.1-23.94,3.31-6.79,2.21-12.52,5.28-17.18,9.21-4.66,3.93-8.14,8.63-10.43,14.12-2.29,5.49-3.44,11.5-3.44,18.04,0,8.35,2.33,15.31,7,20.87,4.66,5.57,10.84,10.31,18.53,14.24,7.69,3.93,16.45,7.45,26.27,10.56,9.82,3.11,19.84,6.43,30.07,9.94,10.23,3.52,20.25,7.61,30.07,12.27,9.82,4.67,18.57,10.56,26.27,17.68,7.69,7.12,13.87,15.83,18.54,26.15,4.66,10.31,7,22.83,7,37.56,0,16.04-2.74,31.05-8.22,45.05-5.49,13.99-13.5,26.19-24.06,36.58-10.56,10.4-23.44,18.58-38.67,24.55-15.22,5.97-32.65,8.96-52.29,8.96-11.29,0-22.42-1.1-33.39-3.31-10.97-2.21-21.48-5.36-31.55-9.45-10.06-4.09-19.48-9-28.23-14.73-8.76-5.73-16.57-12.11-23.44-19.15l19.15-31.67c1.8-2.29,3.97-4.21,6.51-5.77,2.54-1.55,5.36-2.33,8.47-2.33,4.09,0,8.51,1.68,13.26,5.03,4.75,3.36,10.35,7.08,16.82,11.17,6.46,4.09,14.07,7.82,22.83,11.17,8.75,3.36,19.27,5.03,31.55,5.03,18.82,0,33.39-4.46,43.7-13.38,10.31-8.92,15.47-21.73,15.47-38.42,0-9.33-2.33-16.94-7-22.83-4.66-5.89-10.84-10.84-18.53-14.85-7.7-4.01-16.45-7.4-26.27-10.19-9.82-2.78-19.8-5.81-29.95-9.08-10.15-3.27-20.13-7.2-29.95-11.78-9.82-4.58-18.58-10.56-26.27-17.92-7.69-7.36-13.87-16.57-18.53-27.62-4.67-11.05-7-24.67-7-40.87,0-12.93,2.58-25.53,7.73-37.81,5.16-12.27,12.68-23.16,22.58-32.65,9.9-9.49,22.05-17.1,36.46-22.83,14.4-5.73,30.85-8.59,49.34-8.59,20.95,0,40.26,3.28,57.94,9.82,17.68,6.55,32.73,15.71,45.17,27.5l-16.2,31.18Z" />
    <path d="M1245.16,474.93h-27.25c-5.73,0-10.23-.86-13.5-2.58-3.28-1.72-5.73-5.19-7.36-10.43l-5.4-17.92c-6.38,5.73-12.64,10.76-18.78,15.1-6.14,4.34-12.48,7.98-19.03,10.92-6.55,2.95-13.5,5.16-20.87,6.63-7.36,1.47-15.55,2.21-24.55,2.21-10.64,0-20.46-1.44-29.46-4.31-9-2.87-16.74-7.18-23.2-12.93-6.47-5.75-11.5-12.89-15.1-21.43-3.6-8.54-5.4-18.47-5.4-29.8,0-9.52,2.49-18.93,7.49-28.2,4.99-9.28,13.3-17.65,24.92-25.12,11.62-7.47,27.08-13.67,46.4-18.6,19.31-4.92,43.29-7.39,71.93-7.39v-14.84c0-16.98-3.56-29.56-10.68-37.72-7.12-8.16-17.47-12.24-31.05-12.24-9.82,0-18,1.15-24.55,3.44-6.55,2.29-12.24,4.87-17.06,7.73-4.83,2.87-9.29,5.44-13.38,7.73-4.09,2.29-8.59,3.44-13.5,3.44-4.09,0-7.61-1.06-10.56-3.19-2.95-2.12-5.32-4.75-7.12-7.86l-11.05-19.39c28.97-26.51,63.91-39.77,104.83-39.77,14.73,0,27.86,2.42,39.4,7.24,11.54,4.83,21.32,11.54,29.34,20.13,8.02,8.59,14.12,18.86,18.29,30.81,4.17,11.95,6.26,25.04,6.26,39.28v159.08ZM1127.33,437.13c6.22,0,11.94-.56,17.18-1.69,5.24-1.13,10.19-2.82,14.85-5.07,4.67-2.26,9.16-5.03,13.5-8.33,4.33-3.3,8.71-7.21,13.13-11.72v-42.16c-17.68,0-32.45,1.11-44.31,3.34-11.87,2.22-21.4,5.07-28.6,8.53-7.2,3.46-12.32,7.5-15.34,12.12-3.03,4.61-4.54,9.64-4.54,15.08,0,10.72,3.15,18.38,9.45,23,6.3,4.62,14.52,6.92,24.67,6.92Z" />
    <path d="M1417.26,219.13c18.82,0,35.88,3.03,51.19,9.08,15.3,6.06,28.35,14.65,39.16,25.78,10.8,11.13,19.15,24.71,25.04,40.75,5.89,16.04,8.84,33.96,8.84,53.76s-2.95,37.97-8.84,54.01c-5.89,16.04-14.24,29.71-25.04,41-10.8,11.29-23.85,19.97-39.16,26.02-15.3,6.05-32.37,9.08-51.19,9.08s-35.93-3.03-51.31-9.08c-15.39-6.05-28.52-14.73-39.4-26.02-10.89-11.29-19.31-24.96-25.29-41-5.98-16.04-8.96-34.04-8.96-54.01s2.98-37.72,8.96-53.76c5.97-16.04,14.4-29.62,25.29-40.75,10.88-11.13,24.02-19.72,39.4-25.78,15.38-6.05,32.49-9.08,51.31-9.08ZM1417.26,431.97c20.95,0,36.46-7.04,46.52-21.11,10.07-14.07,15.1-34.69,15.1-61.86s-5.03-47.87-15.1-62.11c-10.07-14.24-25.57-21.36-46.52-21.36s-36.99,7.16-47.13,21.48c-10.15,14.32-15.22,34.98-15.22,61.99s5.07,47.59,15.22,61.74c10.15,14.16,25.86,21.24,47.13,21.24Z" />
    <path d="M1593.77,474.93v-251.88h35.6c6.22,0,10.56,1.15,13.01,3.44,2.46,2.29,4.09,6.22,4.91,11.78l3.68,30.44c9-15.55,19.55-27.82,31.67-36.82,12.11-9,25.69-13.5,40.75-13.5,12.44,0,22.75,2.87,30.93,8.59l-7.86,45.42c-.49,2.95-1.56,5.03-3.19,6.26-1.64,1.23-3.85,1.84-6.63,1.84-2.46,0-5.81-.57-10.07-1.72-4.26-1.14-9.9-1.72-16.94-1.72-12.6,0-23.41,3.48-32.41,10.43-9,6.96-16.61,17.15-22.83,30.56v156.87h-60.64Z" />
    <path d="M1948.75,272.15c-1.64,2.62-3.36,4.46-5.16,5.52-1.8,1.07-4.09,1.6-6.87,1.6-2.95,0-6.1-.82-9.45-2.46-3.36-1.63-7.24-3.47-11.66-5.52-4.42-2.04-9.45-3.89-15.1-5.52-5.65-1.63-12.32-2.46-20.01-2.46-11.95,0-21.36,2.54-28.23,7.61-6.87,5.08-10.31,11.7-10.31,19.88,0,5.4,1.76,9.94,5.28,13.62,3.52,3.68,8.18,6.92,13.99,9.7,5.81,2.78,12.4,5.28,19.76,7.49s14.89,4.63,22.58,7.24c7.69,2.62,15.22,5.61,22.59,8.96,7.36,3.36,13.95,7.61,19.76,12.77,5.81,5.16,10.47,11.33,13.99,18.54,3.52,7.2,5.28,15.88,5.28,26.02,0,12.11-2.21,23.28-6.63,33.51-4.42,10.23-10.89,19.07-19.39,26.51-8.51,7.45-19.03,13.26-31.55,17.43-12.52,4.17-26.88,6.26-43.08,6.26-8.68,0-17.15-.78-25.41-2.33-8.27-1.56-16.2-3.72-23.81-6.51-7.61-2.78-14.65-6.05-21.11-9.82-6.47-3.76-12.15-7.86-17.06-12.27l13.99-23.08c1.8-2.78,3.93-4.91,6.38-6.38,2.46-1.47,5.56-2.21,9.33-2.21s7.32,1.07,10.68,3.19c3.35,2.13,7.24,4.42,11.66,6.87s9.61,4.75,15.59,6.87c5.97,2.13,13.54,3.19,22.71,3.19,7.2,0,13.38-.86,18.53-2.58,5.16-1.72,9.41-3.97,12.77-6.75,3.35-2.78,5.81-6.01,7.37-9.7,1.55-3.68,2.33-7.49,2.33-11.42,0-5.89-1.76-10.72-5.28-14.48-3.52-3.76-8.19-7.04-13.99-9.82-5.81-2.78-12.44-5.28-19.88-7.49-7.45-2.21-15.06-4.62-22.83-7.24-7.77-2.62-15.38-5.69-22.83-9.21-7.45-3.52-14.08-7.98-19.89-13.38-5.81-5.4-10.48-12.03-13.99-19.88-3.52-7.86-5.28-17.35-5.28-28.48,0-10.31,2.04-20.13,6.14-29.46,4.09-9.33,10.1-17.47,18.04-24.43,7.94-6.95,17.84-12.52,29.71-16.69,11.86-4.17,25.57-6.26,41.12-6.26,17.35,0,33.14,2.87,47.38,8.59,14.24,5.73,26.1,13.26,35.6,22.59l-13.75,21.85Z" />
    <path d="M2216.09,474.93h-27.25c-5.73,0-10.23-.86-13.5-2.58-3.28-1.72-5.73-5.19-7.36-10.43l-5.4-17.92c-6.38,5.73-12.64,10.76-18.78,15.1-6.14,4.34-12.48,7.98-19.03,10.92-6.55,2.95-13.5,5.16-20.87,6.63-7.36,1.47-15.55,2.21-24.55,2.21-10.64,0-20.46-1.44-29.46-4.31-9-2.87-16.74-7.18-23.2-12.93-6.47-5.75-11.5-12.89-15.1-21.43-3.6-8.54-5.4-18.47-5.4-29.8,0-9.52,2.49-18.93,7.49-28.2,4.99-9.28,13.3-17.65,24.92-25.12,11.62-7.47,27.08-13.67,46.4-18.6,19.31-4.92,43.29-7.39,71.93-7.39v-14.84c0-16.98-3.56-29.56-10.68-37.72-7.12-8.16-17.47-12.24-31.05-12.24-9.82,0-18,1.15-24.55,3.44-6.55,2.29-12.24,4.87-17.06,7.73-4.83,2.87-9.29,5.44-13.38,7.73-4.09,2.29-8.59,3.44-13.5,3.44-4.09,0-7.61-1.06-10.56-3.19-2.95-2.12-5.32-4.75-7.12-7.86l-11.05-19.39c28.97-26.51,63.91-39.77,104.83-39.77,14.73,0,27.86,2.42,39.4,7.24,11.54,4.83,21.32,11.54,29.34,20.13,8.02,8.59,14.12,18.86,18.29,30.81,4.17,11.95,6.26,25.04,6.26,39.28v159.08ZM2098.25,437.13c6.22,0,11.94-.56,17.18-1.69,5.24-1.13,10.19-2.82,14.85-5.07,4.67-2.26,9.16-5.03,13.5-8.33,4.33-3.3,8.71-7.21,13.13-11.72v-42.16c-17.68,0-32.45,1.11-44.31,3.34-11.87,2.22-21.4,5.07-28.6,8.53-7.2,3.46-12.32,7.5-15.34,12.12-3.03,4.61-4.54,9.64-4.54,15.08,0,10.72,3.15,18.38,9.45,23,6.3,4.62,14.52,6.92,24.67,6.92Z" />
    <path d="M2354.3,149.65c0,5.24-1.07,10.15-3.19,14.73-2.13,4.58-4.95,8.59-8.47,12.03-3.52,3.44-7.65,6.18-12.4,8.22-4.75,2.05-9.82,3.07-15.22,3.07s-10.19-1.02-14.85-3.07c-4.66-2.04-8.71-4.79-12.15-8.22-3.44-3.44-6.18-7.45-8.22-12.03-2.05-4.58-3.07-9.49-3.07-14.73s1.02-10.47,3.07-15.22c2.04-4.75,4.79-8.84,8.22-12.27,3.44-3.44,7.49-6.18,12.15-8.22,4.66-2.04,9.61-3.07,14.85-3.07s10.47,1.02,15.22,3.07c4.74,2.05,8.88,4.79,12.4,8.22,3.52,3.44,6.34,7.53,8.47,12.27,2.12,4.75,3.19,9.82,3.19,15.22ZM2345.22,223.06v251.88h-60.64v-251.88h60.64Z" />
    <path d="M2483.19,110.13v364.8h-60.64V110.13h60.64Z" />
  </g>
  <g style="opacity: .5; fill: #efefef;">
    <path d="M778.55,683.18v53.42h-19.24v-142.83h42.16c9.04,0,16.89,1.05,23.57,3.14,6.68,2.09,12.21,5.07,16.6,8.92,4.39,3.85,7.66,8.51,9.82,13.95,2.16,5.45,3.24,11.53,3.24,18.24s-1.16,12.73-3.49,18.24c-2.33,5.52-5.73,10.27-10.22,14.25-4.48,3.99-10.05,7.09-16.69,9.32-6.65,2.23-14.25,3.34-22.83,3.34h-22.92ZM778.55,667.83h22.92c5.51,0,10.38-.73,14.6-2.19,4.22-1.46,7.76-3.5,10.62-6.13,2.86-2.62,5.02-5.76,6.48-9.42,1.46-3.65,2.19-7.67,2.19-12.06,0-9.1-2.81-16.21-8.42-21.33-5.62-5.12-14.1-7.67-25.47-7.67h-22.92v58.81Z"/>
    <path d="M914.2,634.04c7.38,0,14.04,1.23,19.98,3.69,5.95,2.46,11,5.95,15.15,10.47,4.15,4.52,7.34,9.98,9.57,16.4,2.23,6.41,3.34,13.57,3.34,21.48s-1.11,15.15-3.34,21.53c-2.23,6.38-5.42,11.83-9.57,16.35-4.15,4.52-9.2,7.99-15.15,10.42-5.95,2.42-12.61,3.64-19.98,3.64s-14.04-1.21-19.98-3.64c-5.95-2.42-11.01-5.9-15.2-10.42-4.19-4.52-7.41-9.97-9.67-16.35-2.26-6.38-3.39-13.56-3.39-21.53s1.13-15.07,3.39-21.48c2.26-6.41,5.48-11.88,9.67-16.4,4.19-4.52,9.25-8.01,15.2-10.47,5.95-2.46,12.61-3.69,19.98-3.69ZM914.2,724.15c9.97,0,17.41-3.34,22.33-10.02,4.92-6.68,7.38-16,7.38-27.96s-2.46-21.39-7.38-28.11c-4.92-6.71-12.36-10.07-22.33-10.07-5.05,0-9.44.86-13.16,2.59-3.72,1.73-6.83,4.22-9.32,7.48-2.49,3.26-4.35,7.26-5.58,12.01-1.23,4.75-1.84,10.12-1.84,16.1s.61,11.33,1.84,16.05c1.23,4.72,3.09,8.69,5.58,11.91,2.49,3.22,5.6,5.7,9.32,7.43,3.72,1.73,8.11,2.59,13.16,2.59Z"/>
    <path d="M971.01,635.64h13.95c1.46,0,2.66.37,3.59,1.1.93.73,1.56,1.59,1.89,2.59l19.34,64.99c.53,2.39,1.03,4.7,1.5,6.93.46,2.23.86,4.47,1.2,6.73.53-2.26,1.13-4.5,1.79-6.73.66-2.23,1.36-4.54,2.09-6.93l21.33-65.38c.33-1,.91-1.83,1.74-2.49.83-.66,1.88-1,3.14-1h7.67c1.33,0,2.42.33,3.29,1,.86.67,1.46,1.5,1.79,2.49l20.83,65.38c.73,2.33,1.38,4.62,1.94,6.88.56,2.26,1.11,4.48,1.64,6.68.33-2.19.76-4.49,1.3-6.88.53-2.39,1.1-4.62,1.69-6.68l19.74-64.99c.33-1.06.96-1.94,1.89-2.64.93-.7,2.03-1.05,3.29-1.05h13.36l-32.69,100.97h-14.05c-1.73,0-2.92-1.13-3.59-3.39l-22.33-68.48c-.53-1.53-.96-3.07-1.3-4.63-.33-1.56-.67-3.11-1-4.63-.33,1.53-.67,3.09-1,4.68-.33,1.6-.76,3.16-1.3,4.69l-22.63,68.38c-.73,2.26-2.09,3.39-4.09,3.39h-13.36l-32.69-100.97Z"/>
    <path d="M1176.83,634.04c6.05,0,11.63,1.01,16.75,3.04,5.12,2.03,9.53,4.95,13.26,8.77,3.72,3.82,6.63,8.54,8.72,14.15,2.09,5.62,3.14,12.01,3.14,19.19,0,2.79-.3,4.65-.9,5.58-.6.93-1.73,1.4-3.39,1.4h-67.18c.13,6.38,1,11.93,2.59,16.65,1.59,4.72,3.79,8.66,6.58,11.81,2.79,3.16,6.11,5.52,9.97,7.08,3.85,1.56,8.17,2.34,12.96,2.34,4.45,0,8.29-.51,11.51-1.54,3.22-1.03,6-2.14,8.32-3.34,2.33-1.2,4.27-2.31,5.83-3.34,1.56-1.03,2.91-1.54,4.04-1.54,1.46,0,2.59.56,3.39,1.69l4.98,6.48c-2.19,2.66-4.82,4.97-7.87,6.93-3.06,1.96-6.33,3.57-9.82,4.83-3.49,1.26-7.09,2.21-10.81,2.84-3.72.63-7.41.95-11.06.95-6.98,0-13.41-1.18-19.29-3.54-5.88-2.36-10.96-5.81-15.25-10.37-4.29-4.55-7.62-10.18-10.02-16.89-2.39-6.71-3.59-14.42-3.59-23.12,0-7.04,1.08-13.62,3.24-19.74,2.16-6.11,5.27-11.41,9.32-15.9,4.05-4.49,9-8.01,14.85-10.57,5.85-2.56,12.42-3.84,19.73-3.84ZM1177.23,647.1c-8.57,0-15.32,2.48-20.23,7.43-4.92,4.95-7.97,11.81-9.17,20.58h54.92c0-4.12-.57-7.89-1.69-11.31-1.13-3.42-2.79-6.38-4.98-8.87-2.19-2.49-4.87-4.42-8.02-5.78-3.16-1.36-6.76-2.04-10.81-2.04Z"/>
    <path d="M1241.32,736.61v-100.97h10.17c1.93,0,3.25.37,3.99,1.1.73.73,1.23,1.99,1.5,3.79l1.2,15.75c3.46-7.04,7.72-12.54,12.81-16.5,5.08-3.95,11.05-5.93,17.89-5.93,2.79,0,5.32.32,7.58.95,2.26.63,4.35,1.51,6.28,2.64l-2.29,13.26c-.47,1.66-1.5,2.49-3.09,2.49-.93,0-2.36-.31-4.29-.95-1.93-.63-4.62-.95-8.07-.95-6.18,0-11.35,1.79-15.5,5.38-4.15,3.59-7.62,8.81-10.42,15.65v64.29h-17.74Z"/>
    <path d="M1361.62,634.04c6.05,0,11.63,1.01,16.75,3.04,5.12,2.03,9.53,4.95,13.26,8.77,3.72,3.82,6.63,8.54,8.72,14.15,2.09,5.62,3.14,12.01,3.14,19.19,0,2.79-.3,4.65-.9,5.58-.6.93-1.73,1.4-3.39,1.4h-67.18c.13,6.38,1,11.93,2.59,16.65,1.59,4.72,3.79,8.66,6.58,11.81,2.79,3.16,6.11,5.52,9.97,7.08,3.85,1.56,8.17,2.34,12.96,2.34,4.45,0,8.29-.51,11.51-1.54,3.22-1.03,6-2.14,8.32-3.34,2.33-1.2,4.27-2.31,5.83-3.34,1.56-1.03,2.91-1.54,4.04-1.54,1.46,0,2.59.56,3.39,1.69l4.98,6.48c-2.19,2.66-4.82,4.97-7.87,6.93-3.06,1.96-6.33,3.57-9.82,4.83-3.49,1.26-7.09,2.21-10.81,2.84-3.72.63-7.41.95-11.06.95-6.98,0-13.41-1.18-19.29-3.54-5.88-2.36-10.96-5.81-15.25-10.37-4.29-4.55-7.62-10.18-10.02-16.89-2.39-6.71-3.59-14.42-3.59-23.12,0-7.04,1.08-13.62,3.24-19.74,2.16-6.11,5.27-11.41,9.32-15.9,4.05-4.49,9-8.01,14.85-10.57,5.85-2.56,12.42-3.84,19.73-3.84ZM1362.02,647.1c-8.57,0-15.32,2.48-20.23,7.43-4.92,4.95-7.97,11.81-9.17,20.58h54.92c0-4.12-.57-7.89-1.69-11.31-1.13-3.42-2.79-6.38-4.98-8.87-2.19-2.49-4.87-4.42-8.02-5.78-3.16-1.36-6.76-2.04-10.81-2.04Z"/>
    <path d="M1497.18,736.61c-2.53,0-4.12-1.23-4.78-3.69l-1.59-12.26c-4.32,5.25-9.25,9.45-14.8,12.61-5.55,3.16-11.91,4.73-19.09,4.73-5.78,0-11.03-1.11-15.75-3.34-4.72-2.23-8.74-5.5-12.06-9.82-3.32-4.32-5.88-9.7-7.67-16.15-1.79-6.44-2.69-13.85-2.69-22.23,0-7.44,1-14.37,2.99-20.78,1.99-6.41,4.87-11.98,8.62-16.7,3.75-4.72,8.32-8.42,13.71-11.11,5.38-2.69,11.5-4.04,18.34-4.04,6.18,0,11.46,1.05,15.85,3.14,4.39,2.09,8.31,5.03,11.76,8.82v-56.02h17.74v146.82h-10.57ZM1462.79,723.65c5.78,0,10.85-1.33,15.2-3.99,4.35-2.66,8.36-6.41,12.01-11.26v-48.84c-3.26-4.39-6.83-7.46-10.71-9.22-3.89-1.76-8.19-2.64-12.91-2.64-9.44,0-16.68,3.36-21.73,10.07-5.05,6.71-7.57,16.28-7.57,28.71,0,6.58.56,12.21,1.69,16.89,1.13,4.68,2.79,8.54,4.98,11.56,2.19,3.02,4.88,5.23,8.07,6.63s6.84,2.09,10.96,2.09Z"/>
    <path d="M1576.61,736.61v-146.82h17.84v60.4c4.19-4.85,8.99-8.75,14.4-11.71,5.42-2.96,11.61-4.43,18.59-4.43,5.85,0,11.13,1.1,15.85,3.29,4.72,2.19,8.74,5.47,12.06,9.82,3.32,4.35,5.88,9.74,7.67,16.15,1.79,6.41,2.69,13.8,2.69,22.18,0,7.44-1,14.37-2.99,20.78-1.99,6.41-4.87,11.96-8.62,16.65-3.75,4.68-8.34,8.37-13.75,11.06-5.42,2.69-11.51,4.04-18.29,4.04s-12.04-1.26-16.59-3.79c-4.55-2.52-8.52-6.04-11.91-10.56l-.9,9.17c-.53,2.53-2.06,3.79-4.58,3.79h-11.46ZM1621.66,648.2c-5.78,0-10.85,1.33-15.2,3.99-4.35,2.66-8.36,6.41-12.01,11.26v48.84c3.19,4.39,6.73,7.48,10.62,9.27,3.89,1.79,8.22,2.69,13.01,2.69,9.43,0,16.68-3.35,21.73-10.07,5.05-6.71,7.58-16.28,7.58-28.71,0-6.58-.58-12.23-1.74-16.94-1.16-4.72-2.84-8.59-5.03-11.61-2.19-3.02-4.88-5.23-8.07-6.63s-6.81-2.09-10.86-2.09Z"/>
    <path d="M1714.46,766.41c-.6,1.33-1.35,2.39-2.24,3.19-.9.8-2.28,1.2-4.14,1.2h-13.16l18.44-40.07-41.66-95.09h15.35c1.53,0,2.72.38,3.59,1.15.86.76,1.5,1.61,1.89,2.54l27.01,63.59c.6,1.46,1.11,2.92,1.54,4.39.43,1.46.81,2.96,1.15,4.49.46-1.53.93-3.02,1.4-4.49.46-1.46,1-2.96,1.59-4.49l26.21-63.49c.4-1.06,1.08-1.94,2.04-2.64.96-.7,2.01-1.05,3.14-1.05h14.15l-56.31,130.77Z"/>
    <path d="M1916.19,593.77v15.75h-68.57v49.94h58.61v15.75h-58.61v61.4h-19.44v-142.83h88.01Z"/>
    <path d="M1933.64,669.33h49.24v15.05h-49.24v-15.05Z"/>
    <path d="M2133.97,665.24c0,10.7-1.69,20.43-5.08,29.2-3.39,8.77-8.17,16.28-14.35,22.53-6.18,6.25-13.59,11.08-22.23,14.5-8.64,3.42-18.21,5.13-28.71,5.13h-53.42v-142.83h53.42c10.5,0,20.07,1.71,28.71,5.13,8.64,3.42,16.05,8.27,22.23,14.55s10.96,13.8,14.35,22.58,5.08,18.51,5.08,29.2ZM2114.14,665.24c0-8.77-1.2-16.61-3.59-23.52-2.39-6.91-5.78-12.76-10.17-17.54s-9.7-8.44-15.95-10.96c-6.25-2.52-13.19-3.79-20.83-3.79h-33.99v111.53h33.99c7.64,0,14.58-1.26,20.83-3.79,6.25-2.52,11.56-6.16,15.95-10.91,4.39-4.75,7.77-10.58,10.17-17.49,2.39-6.91,3.59-14.75,3.59-23.52Z"/>
    <path d="M2157.49,736.61v-100.97h10.17c1.93,0,3.25.37,3.99,1.1.73.73,1.23,1.99,1.5,3.79l1.2,15.75c3.46-7.04,7.72-12.54,12.81-16.5,5.08-3.95,11.05-5.93,17.89-5.93,2.79,0,5.32.32,7.58.95,2.26.63,4.35,1.51,6.28,2.64l-2.29,13.26c-.47,1.66-1.5,2.49-3.09,2.49-.93,0-2.36-.31-4.29-.95-1.93-.63-4.62-.95-8.07-.95-6.18,0-11.35,1.79-15.5,5.38-4.15,3.59-7.62,8.81-10.42,15.65v64.29h-17.74Z"/>
    <path d="M2278.7,634.04c7.38,0,14.04,1.23,19.98,3.69,5.95,2.46,11,5.95,15.15,10.47,4.15,4.52,7.34,9.98,9.57,16.4,2.23,6.41,3.34,13.57,3.34,21.48s-1.11,15.15-3.34,21.53c-2.23,6.38-5.42,11.83-9.57,16.35-4.15,4.52-9.2,7.99-15.15,10.42-5.95,2.42-12.61,3.64-19.98,3.64s-14.04-1.21-19.98-3.64c-5.95-2.42-11.01-5.9-15.2-10.42-4.19-4.52-7.41-9.97-9.67-16.35-2.26-6.38-3.39-13.56-3.39-21.53s1.13-15.07,3.39-21.48c2.26-6.41,5.48-11.88,9.67-16.4,4.19-4.52,9.25-8.01,15.2-10.47,5.95-2.46,12.61-3.69,19.98-3.69ZM2278.7,724.15c9.97,0,17.41-3.34,22.33-10.02,4.92-6.68,7.38-16,7.38-27.96s-2.46-21.39-7.38-28.11c-4.92-6.71-12.36-10.07-22.33-10.07-5.05,0-9.44.86-13.16,2.59-3.72,1.73-6.83,4.22-9.32,7.48-2.49,3.26-4.35,7.26-5.58,12.01-1.23,4.75-1.84,10.12-1.84,16.1s.61,11.33,1.84,16.05c1.23,4.72,3.09,8.69,5.58,11.91,2.49,3.22,5.6,5.7,9.32,7.43,3.72,1.73,8.11,2.59,13.16,2.59Z"/>
    <path d="M2372.39,603.94c0,1.73-.35,3.34-1.05,4.83-.7,1.5-1.63,2.83-2.79,3.99s-2.51,2.08-4.04,2.74c-1.53.66-3.16,1-4.88,1s-3.34-.33-4.83-1-2.82-1.58-3.99-2.74c-1.16-1.16-2.08-2.49-2.74-3.99-.67-1.5-1-3.11-1-4.83s.33-3.37,1-4.93c.66-1.56,1.58-2.92,2.74-4.09,1.16-1.16,2.49-2.08,3.99-2.74,1.5-.66,3.11-1,4.83-1s3.35.33,4.88,1c1.53.67,2.87,1.58,4.04,2.74,1.16,1.16,2.09,2.53,2.79,4.09.7,1.56,1.05,3.21,1.05,4.93ZM2368.4,635.64v100.97h-17.74v-100.97h17.74Z"/>
    <path d="M2470.76,736.61c-2.53,0-4.12-1.23-4.78-3.69l-1.59-12.26c-4.32,5.25-9.25,9.45-14.8,12.61-5.55,3.16-11.91,4.73-19.09,4.73-5.78,0-11.03-1.11-15.75-3.34-4.72-2.23-8.74-5.5-12.06-9.82-3.32-4.32-5.88-9.7-7.67-16.15-1.79-6.44-2.69-13.85-2.69-22.23,0-7.44,1-14.37,2.99-20.78,1.99-6.41,4.87-11.98,8.62-16.7,3.75-4.72,8.32-8.42,13.71-11.11,5.38-2.69,11.5-4.04,18.34-4.04,6.18,0,11.46,1.05,15.85,3.14,4.39,2.09,8.31,5.03,11.76,8.82v-56.02h17.74v146.82h-10.57ZM2436.38,723.65c5.78,0,10.85-1.33,15.2-3.99,4.35-2.66,8.36-6.41,12.01-11.26v-48.84c-3.26-4.39-6.83-7.46-10.71-9.22-3.89-1.76-8.19-2.64-12.91-2.64-9.44,0-16.68,3.36-21.73,10.07-5.05,6.71-7.57,16.28-7.57,28.71,0,6.58.56,12.21,1.69,16.89,1.13,4.68,2.79,8.54,4.98,11.56,2.19,3.02,4.88,5.23,8.07,6.63s6.84,2.09,10.96,2.09Z"/>
  </g>
</svg>