<?xml version="1.0" encoding="utf-8"?><!-- Uploaded to: SVG Repo, www.svgrepo.com, Generator: SVG Repo Mixer Tools -->
<svg width="800px" height="800px" viewBox="0 0 36 36" xmlns="http://www.w3.org/2000/svg" xmlns:xlink="http://www.w3.org/1999/xlink" aria-hidden="true" role="img" class="iconify iconify--twemoji" preserveAspectRatio="xMidYMid meet"><path fill="#FDCB58" d="M31 15a2 2 0 0 1-2 2H7a2 2 0 0 1-2-2V7a2 2 0 0 1 2-2h22a2 2 0 0 1 2 2v8z"></path><path fill="#FDD888" d="M33 19a2 2 0 0 1-2 2H5a2 2 0 0 1-2-2v-8a2 2 0 0 1 2-2h26a2 2 0 0 1 2 2v8z"></path><path fill="#FEE7B8" d="M35 33a2 2 0 0 1-2 2H3a2 2 0 0 1-2-2V15a2 2 0 0 1 2-2h30a2 2 0 0 1 2 2v18z"></path><path fill="#67757F" d="M11 14zm0 0z"></path><path fill="#78B159" d="M23 3h-5a2 2 0 0 0-2 2v1h2a2 2 0 0 1 2 2h3a2 2 0 0 0 2-2V5a2 2 0 0 0-2-2z"></path><path fill="#F18F26" d="M17 7h-5a2 2 0 0 0-2 2v1h2a2 2 0 0 1 2 2h3a2 2 0 0 0 2-2V9a2 2 0 0 0-2-2z"></path><path fill="#9268CA" d="M13 14a2 2 0 0 1-2 2H6a2 2 0 0 1-2-2v-1a2 2 0 0 1 2-2h5a2 2 0 0 1 2 2v1z"></path></svg>