<?xml version="1.0" encoding="UTF-8"?>
<svg id="Layer_1" data-name="Layer 1" xmlns="http://www.w3.org/2000/svg" viewBox="0 0 611.95 737.21">
  <g id="shopping_bag" data-name="shopping bag">
    <path id="Path_141" data-name="Path 141" d="M0,212.65v482.02c.06,23.46,19.05,42.46,42.51,42.54h526.94c23.45-.08,42.44-19.09,42.5-42.54V212.65H0Z" style="fill: #237cd4; stroke-width: 0px;"/>
    <path id="Path_142" data-name="Path 142" d="M579.89,195.91l-32.17-17.11,32.17-33.72.17-.17H31.76l.19.17,32.14,33.72-32.14,17.11L.26,212.62h611.26l-31.63-16.71Z" style="fill: #043a6e; stroke-width: 0px;"/>
    <path id="Path_143" data-name="Path 143" d="M579.89,145.08l-32.17,33.72,32.17,17.11.17.05v-51.06l-.17.19Z" style="fill: #449fea; stroke-width: 0px;"/>
    <path id="Path_144" data-name="Path 144" d="M31.96,195.91l32.14-17.11-32.14-33.72v50.83Z" style="fill: #449fea; stroke-width: 0px;"/>
    <path id="Path_145" data-name="Path 145" d="M174.25,363.31c-.03,19.56-15.9,35.4-35.47,35.37-19.56-.03-35.4-15.9-35.37-35.47.03-19.53,15.86-35.36,35.39-35.37,19.58,0,35.45,15.88,35.45,35.47h0Z" style="fill: #043a6e; stroke-width: 0px;"/>
    <path id="Path_146" data-name="Path 146" d="M513.88,363.31c-.02,19.57-15.9,35.41-35.47,35.39-19.57-.02-35.41-15.9-35.39-35.47.02-19.57,15.9-35.41,35.47-35.39h.02c19.55.01,35.38,15.86,35.37,35.41v.06Z" style="fill: #043a6e; stroke-width: 0px;"/>
    <path id="Path_147" data-name="Path 147" d="M309.53,0C204.48-.02,119.31,85.13,119.3,190.18v.03c0,1.53,0,79.33.07,162.82v.32s-.07.11-.07.19.07.17.07.21c.29,11.73,10.04,21.01,21.78,20.71,11.4-.29,20.55-9.52,20.72-20.93,0-.14-.07-.26-.07-.5h.07v-162.82c0-81.56,66.12-147.67,147.67-147.67s147.67,66.12,147.67,147.67c0,1.75-.06,72.37-.06,142.98v18.43c-.05.49-.15.93-.19,1.43v.5c0,.66.15,1.27.19,1.86.98,11.66,11.22,20.32,22.88,19.35,11.01-.92,19.47-10.15,19.42-21.2v-.5h.21v-19.84c0-70.56.07-141.22.07-142.98C499.75,85.18,414.61.02,309.56,0h-.03Z" style="fill: #84c102; stroke-width: 0px;"/>
  </g>
  <g id="g5012" style="opacity: .28;">
    <g id="g4211">
      <path id="path4161" d="M309.52,404.16c-44.48,0-82.14,30.64-93.15,71.8h49.61c8.56-15.21,24.63-25.48,43.55-25.48,27.99,0,50.18,22.19,50.18,50.18s-22.19,50.18-50.18,50.18c-20.19,0-37.23-11.62-45.23-28.56h-48.7c9.92,42.7,48.36,74.88,93.94,74.88,53.02,0,96.5-43.48,96.5-96.5s-43.48-96.5-96.5-96.5Z" style="fill: #0d47a1; stroke-width: 0px;"/>
      <circle id="path4209" cx="309.52" cy="500.66" r="147.45" style="fill: none; stroke: #0d47a1; stroke-linecap: round; stroke-width: 27px;"/>
    </g>
  </g>
</svg>